<mxfile host="app.diagrams.net" modified="2023-08-02T13:53:15.430Z" agent="Mozilla/5.0 (Windows NT 10.0; Win64; x64) AppleWebKit/537.36 (KHTML, like Gecko) Chrome/109.0.0.0 Safari/537.36" etag="B1A6Oj-AFOhgPhkWCrMg" version="21.6.6" type="google">
  <diagram name="ページ1" id="HnClHyY8cUkIvw8qRZSE">
    <mxGraphModel grid="1" page="1" gridSize="10" guides="1" tooltips="1" connect="1" arrows="1" fold="1" pageScale="1" pageWidth="1169" pageHeight="827" math="0" shadow="0">
      <root>
        <mxCell id="0" />
        <mxCell id="1" parent="0" />
        <mxCell id="oyOp2UFojPAAg8c2WS3_-29" value="&lt;b&gt;&lt;font style=&quot;font-size: 17px;&quot;&gt;(0, 1)&lt;/font&gt;&lt;/b&gt;" style="rounded=0;whiteSpace=wrap;html=1;fillColor=none;strokeColor=none;" vertex="1" parent="1">
          <mxGeometry x="920" y="359" width="79" height="40.91" as="geometry" />
        </mxCell>
        <mxCell id="oyOp2UFojPAAg8c2WS3_-1" value="" style="rounded=0;whiteSpace=wrap;html=1;fillColor=none;strokeWidth=3;" vertex="1" parent="1">
          <mxGeometry x="480" y="199.91" width="160" height="160.09" as="geometry" />
        </mxCell>
        <mxCell id="oyOp2UFojPAAg8c2WS3_-2" value="&lt;b&gt;&lt;font style=&quot;font-size: 17px;&quot;&gt;(&lt;font color=&quot;#cc0000&quot;&gt;x, y&lt;/font&gt;, z, w) = &lt;br&gt;(&lt;font color=&quot;#cc0000&quot;&gt;-1, 1&lt;/font&gt;, 0, 1)&lt;/font&gt;&lt;/b&gt;" style="rounded=0;whiteSpace=wrap;html=1;fillColor=none;strokeColor=none;" vertex="1" parent="1">
          <mxGeometry x="360" y="140" width="120" height="49.91" as="geometry" />
        </mxCell>
        <mxCell id="oyOp2UFojPAAg8c2WS3_-3" value="" style="rounded=0;whiteSpace=wrap;html=1;strokeColor=none;fillColor=none;" vertex="1" parent="1">
          <mxGeometry width="40" height="40" as="geometry" />
        </mxCell>
        <mxCell id="oyOp2UFojPAAg8c2WS3_-4" value="" style="rounded=0;whiteSpace=wrap;html=1;strokeColor=none;fillColor=none;" vertex="1" parent="1">
          <mxGeometry x="1600" width="40" height="40" as="geometry" />
        </mxCell>
        <mxCell id="oyOp2UFojPAAg8c2WS3_-5" value="&lt;font size=&quot;1&quot; style=&quot;&quot;&gt;&lt;span style=&quot;font-size: 17px;&quot;&gt;&lt;b style=&quot;&quot;&gt;(&lt;font color=&quot;#cc0000&quot;&gt;1, -1&lt;/font&gt;, 0, 1)&lt;/b&gt;&lt;/span&gt;&lt;/font&gt;" style="rounded=0;whiteSpace=wrap;html=1;fillColor=none;strokeColor=none;" vertex="1" parent="1">
          <mxGeometry x="640" y="359.91" width="120" height="40" as="geometry" />
        </mxCell>
        <mxCell id="oyOp2UFojPAAg8c2WS3_-6" value="&lt;b style=&quot;&quot;&gt;&lt;font style=&quot;&quot;&gt;頂点座標 (x, y, z, w)&lt;br&gt;&lt;font style=&quot;font-size: 24px;&quot;&gt;-1.0 ≦ x, y, z, w ≦ 1.0&lt;/font&gt;&lt;br&gt;&lt;/font&gt;&lt;/b&gt;" style="rounded=0;whiteSpace=wrap;html=1;fillColor=none;strokeColor=none;fontSize=32;" vertex="1" parent="1">
          <mxGeometry x="400" width="400" height="80" as="geometry" />
        </mxCell>
        <mxCell id="oyOp2UFojPAAg8c2WS3_-7" value="&lt;b&gt;&lt;font style=&quot;font-size: 17px;&quot;&gt;(&lt;font color=&quot;#cc0000&quot;&gt;-1, -&lt;/font&gt;&lt;/font&gt;&lt;/b&gt;&lt;b style=&quot;border-color: var(--border-color);&quot;&gt;&lt;font style=&quot;border-color: var(--border-color); font-size: 17px;&quot;&gt;&lt;font color=&quot;#cc0000&quot;&gt;1&lt;/font&gt;, 0, 1&lt;/font&gt;&lt;/b&gt;&lt;b&gt;&lt;font style=&quot;font-size: 17px;&quot;&gt;)&lt;/font&gt;&lt;/b&gt;" style="rounded=0;whiteSpace=wrap;html=1;fillColor=none;strokeColor=none;" vertex="1" parent="1">
          <mxGeometry x="360" y="359.91" width="110" height="40" as="geometry" />
        </mxCell>
        <mxCell id="oyOp2UFojPAAg8c2WS3_-8" value="&lt;b&gt;&lt;font style=&quot;font-size: 17px;&quot;&gt;(&lt;font color=&quot;#cc0000&quot;&gt;1, 1&lt;/font&gt;, 0, 1)&lt;/font&gt;&lt;/b&gt;" style="rounded=0;whiteSpace=wrap;html=1;fillColor=none;strokeColor=none;" vertex="1" parent="1">
          <mxGeometry x="640" y="159.91" width="120" height="40" as="geometry" />
        </mxCell>
        <mxCell id="oyOp2UFojPAAg8c2WS3_-9" value="" style="endArrow=classic;html=1;rounded=0;strokeWidth=3;strokeColor=#00CC00;" edge="1" parent="1">
          <mxGeometry width="50" height="50" relative="1" as="geometry">
            <mxPoint x="560" y="401.2893103448275" as="sourcePoint" />
            <mxPoint x="560" y="159.91" as="targetPoint" />
          </mxGeometry>
        </mxCell>
        <mxCell id="oyOp2UFojPAAg8c2WS3_-10" value="&lt;b&gt;&lt;font style=&quot;font-size: 19px;&quot;&gt;y&lt;/font&gt;&lt;/b&gt;" style="edgeLabel;html=1;align=center;verticalAlign=middle;resizable=0;points=[];labelBackgroundColor=none;" vertex="1" connectable="0" parent="oyOp2UFojPAAg8c2WS3_-9">
          <mxGeometry x="-0.275" y="-1" relative="1" as="geometry">
            <mxPoint x="-1" y="-172" as="offset" />
          </mxGeometry>
        </mxCell>
        <mxCell id="oyOp2UFojPAAg8c2WS3_-11" value="" style="endArrow=classic;html=1;rounded=0;strokeWidth=3;strokeColor=#CC0000;" edge="1" parent="1">
          <mxGeometry width="50" height="50" relative="1" as="geometry">
            <mxPoint x="440" y="279.90999999999997" as="sourcePoint" />
            <mxPoint x="680" y="279.90999999999997" as="targetPoint" />
          </mxGeometry>
        </mxCell>
        <mxCell id="oyOp2UFojPAAg8c2WS3_-12" value="&lt;b&gt;&lt;font style=&quot;font-size: 19px;&quot;&gt;x&lt;/font&gt;&lt;/b&gt;" style="edgeLabel;html=1;align=center;verticalAlign=middle;resizable=0;points=[];labelBackgroundColor=none;" vertex="1" connectable="0" parent="oyOp2UFojPAAg8c2WS3_-11">
          <mxGeometry x="-0.275" y="-1" relative="1" as="geometry">
            <mxPoint x="163" y="-1" as="offset" />
          </mxGeometry>
        </mxCell>
        <mxCell id="oyOp2UFojPAAg8c2WS3_-13" value="" style="endArrow=classic;html=1;rounded=0;strokeWidth=3;strokeColor=#0000CC;exitX=1;exitY=0;exitDx=0;exitDy=0;" edge="1" parent="1">
          <mxGeometry width="50" height="50" relative="1" as="geometry">
            <mxPoint x="537.0710678118655" y="312.83893218813466" as="sourcePoint" />
            <mxPoint x="660" y="129.91" as="targetPoint" />
          </mxGeometry>
        </mxCell>
        <mxCell id="oyOp2UFojPAAg8c2WS3_-14" value="&lt;b&gt;&lt;font style=&quot;font-size: 19px;&quot;&gt;z&lt;/font&gt;&lt;/b&gt;" style="edgeLabel;html=1;align=center;verticalAlign=middle;resizable=0;points=[];labelBackgroundColor=none;" vertex="1" connectable="0" parent="oyOp2UFojPAAg8c2WS3_-13">
          <mxGeometry x="-0.275" y="-1" relative="1" as="geometry">
            <mxPoint x="87" y="-127" as="offset" />
          </mxGeometry>
        </mxCell>
        <mxCell id="oyOp2UFojPAAg8c2WS3_-15" value="image" style="rounded=0;whiteSpace=wrap;html=1;fillColor=none;strokeColor=none;fontColor=#0000CC;textOpacity=30;fontSize=18;fontStyle=1" vertex="1" parent="1">
          <mxGeometry x="488.53999999999996" y="209.91" width="71.46" height="30" as="geometry" />
        </mxCell>
        <mxCell id="oyOp2UFojPAAg8c2WS3_-16" style="rounded=0;orthogonalLoop=1;jettySize=auto;html=1;entryX=-0.011;entryY=0.281;entryDx=0;entryDy=0;entryPerimeter=0;" edge="1" parent="1" source="oyOp2UFojPAAg8c2WS3_-17" target="oyOp2UFojPAAg8c2WS3_-1">
          <mxGeometry relative="1" as="geometry">
            <mxPoint x="572" y="583.8283582089553" as="targetPoint" />
          </mxGeometry>
        </mxCell>
        <mxCell id="oyOp2UFojPAAg8c2WS3_-17" value="MetalKit View" style="rounded=1;whiteSpace=wrap;html=1;fontStyle=1;fontSize=16;fontColor=#000000;strokeColor=none;fillColor=none;" vertex="1" parent="1">
          <mxGeometry x="280" y="220" width="110" height="30" as="geometry" />
        </mxCell>
        <mxCell id="oyOp2UFojPAAg8c2WS3_-18" value="" style="sketch=0;outlineConnect=0;fillColor=#0050ef;strokeColor=#001DBC;dashed=0;verticalLabelPosition=bottom;verticalAlign=top;align=center;html=1;fontSize=12;fontStyle=0;aspect=fixed;pointerEvents=1;shape=mxgraph.aws4.container_registry_image;fontColor=#ffffff;opacity=20;" vertex="1" parent="1">
          <mxGeometry x="480" y="199.91" width="160.09" height="160.09" as="geometry" />
        </mxCell>
        <mxCell id="oyOp2UFojPAAg8c2WS3_-19" value="" style="endArrow=classic;html=1;rounded=0;strokeWidth=3;strokeColor=#00CC00;" edge="1" parent="1">
          <mxGeometry width="50" height="50" relative="1" as="geometry">
            <mxPoint x="999" y="200" as="sourcePoint" />
            <mxPoint x="999" y="410" as="targetPoint" />
          </mxGeometry>
        </mxCell>
        <mxCell id="oyOp2UFojPAAg8c2WS3_-20" value="" style="group" vertex="1" connectable="0" parent="1">
          <mxGeometry x="1000" y="200" width="160.09000000000003" height="169.99999999999994" as="geometry" />
        </mxCell>
        <mxCell id="oyOp2UFojPAAg8c2WS3_-21" value="" style="sketch=0;outlineConnect=0;fillColor=#0050ef;strokeColor=#001DBC;dashed=0;verticalLabelPosition=bottom;verticalAlign=top;align=center;html=1;fontSize=12;fontStyle=0;aspect=fixed;pointerEvents=1;shape=mxgraph.aws4.container_registry_image;fontColor=#ffffff;opacity=20;" vertex="1" parent="oyOp2UFojPAAg8c2WS3_-20">
          <mxGeometry width="160.09" height="160.09" as="geometry" />
        </mxCell>
        <mxCell id="oyOp2UFojPAAg8c2WS3_-22" value="texture" style="rounded=0;whiteSpace=wrap;html=1;fillColor=none;strokeColor=none;fontColor=#0000CC;textOpacity=30;fontSize=18;fontStyle=1" vertex="1" parent="oyOp2UFojPAAg8c2WS3_-20">
          <mxGeometry x="8.539999999999964" y="10" width="71.46" height="30" as="geometry" />
        </mxCell>
        <mxCell id="oyOp2UFojPAAg8c2WS3_-23" value="0" style="ellipse;whiteSpace=wrap;html=1;aspect=fixed;fillColor=default;fontSize=15;strokeWidth=3;fontStyle=1;" vertex="1" parent="oyOp2UFojPAAg8c2WS3_-20">
          <mxGeometry x="-11" y="148.99999999999994" width="20" height="20" as="geometry" />
        </mxCell>
        <mxCell id="oyOp2UFojPAAg8c2WS3_-24" value="" style="endArrow=classic;html=1;rounded=0;strokeWidth=3;strokeColor=#CC0000;" edge="1" parent="1">
          <mxGeometry width="50" height="50" relative="1" as="geometry">
            <mxPoint x="1000" y="200" as="sourcePoint" />
            <mxPoint x="1200" y="200" as="targetPoint" />
          </mxGeometry>
        </mxCell>
        <mxCell id="oyOp2UFojPAAg8c2WS3_-25" value="&lt;b&gt;&lt;font style=&quot;font-size: 19px;&quot;&gt;u&lt;/font&gt;&lt;/b&gt;" style="edgeLabel;html=1;align=center;verticalAlign=middle;resizable=0;points=[];labelBackgroundColor=none;" vertex="1" connectable="0" parent="oyOp2UFojPAAg8c2WS3_-24">
          <mxGeometry x="-0.275" y="-1" relative="1" as="geometry">
            <mxPoint x="147" y="-1" as="offset" />
          </mxGeometry>
        </mxCell>
        <mxCell id="oyOp2UFojPAAg8c2WS3_-26" value="&lt;b&gt;&lt;font style=&quot;font-size: 17px;&quot;&gt;(u, v) = &lt;br&gt;(0, 0)&lt;/font&gt;&lt;/b&gt;" style="rounded=0;whiteSpace=wrap;html=1;fillColor=none;strokeColor=none;" vertex="1" parent="1">
          <mxGeometry x="939" y="140" width="70" height="49.91" as="geometry" />
        </mxCell>
        <mxCell id="oyOp2UFojPAAg8c2WS3_-27" value="&lt;b&gt;&lt;font style=&quot;font-size: 17px;&quot;&gt;(1, 1)&lt;/font&gt;&lt;/b&gt;" style="rounded=0;whiteSpace=wrap;html=1;fillColor=none;strokeColor=none;" vertex="1" parent="1">
          <mxGeometry x="1161" y="359" width="79" height="40.91" as="geometry" />
        </mxCell>
        <mxCell id="oyOp2UFojPAAg8c2WS3_-28" value="&lt;b&gt;&lt;font style=&quot;font-size: 17px;&quot;&gt;(1, 0)&lt;/font&gt;&lt;/b&gt;" style="rounded=0;whiteSpace=wrap;html=1;fillColor=none;strokeColor=none;" vertex="1" parent="1">
          <mxGeometry x="1160.09" y="149.09" width="79" height="40.91" as="geometry" />
        </mxCell>
        <mxCell id="oyOp2UFojPAAg8c2WS3_-30" value="&lt;b&gt;テクスチャ座標/uv座標 (u, v)&lt;br&gt;&lt;font style=&quot;font-size: 24px;&quot;&gt;0 ≦ u, v ≦ 1.0&lt;/font&gt;&lt;br&gt;&lt;/b&gt;" style="rounded=0;whiteSpace=wrap;html=1;fillColor=none;strokeColor=none;fontSize=32;" vertex="1" parent="1">
          <mxGeometry x="880.05" width="459.95" height="80" as="geometry" />
        </mxCell>
        <mxCell id="oyOp2UFojPAAg8c2WS3_-31" value="2" style="ellipse;whiteSpace=wrap;html=1;aspect=fixed;fillColor=default;strokeWidth=3;fontStyle=1;fontSize=15;" vertex="1" parent="1">
          <mxGeometry x="470" y="189.91" width="20" height="20" as="geometry" />
        </mxCell>
        <mxCell id="oyOp2UFojPAAg8c2WS3_-32" value="3" style="ellipse;whiteSpace=wrap;html=1;aspect=fixed;fillColor=default;fontSize=15;strokeWidth=3;fontStyle=1;" vertex="1" parent="1">
          <mxGeometry x="630" y="189.91" width="20" height="20" as="geometry" />
        </mxCell>
        <mxCell id="oyOp2UFojPAAg8c2WS3_-33" value="0" style="ellipse;whiteSpace=wrap;html=1;aspect=fixed;fillColor=default;fontSize=15;strokeWidth=3;fontStyle=1;" vertex="1" parent="1">
          <mxGeometry x="470" y="349.90999999999997" width="20" height="20" as="geometry" />
        </mxCell>
        <mxCell id="oyOp2UFojPAAg8c2WS3_-34" value="1" style="ellipse;whiteSpace=wrap;html=1;aspect=fixed;fillColor=default;fontSize=15;strokeWidth=3;fontStyle=1;" vertex="1" parent="1">
          <mxGeometry x="630" y="349.90999999999997" width="20" height="20" as="geometry" />
        </mxCell>
        <mxCell id="oyOp2UFojPAAg8c2WS3_-35" value="" style="endArrow=classic;html=1;rounded=0;strokeWidth=3;strokeColor=default;fontSize=15;fillColor=default;fontStyle=1;" edge="1" parent="1" target="oyOp2UFojPAAg8c2WS3_-37">
          <mxGeometry width="50" height="50" relative="1" as="geometry">
            <mxPoint x="1000" y="200" as="sourcePoint" />
            <mxPoint x="1000" y="400" as="targetPoint" />
          </mxGeometry>
        </mxCell>
        <mxCell id="oyOp2UFojPAAg8c2WS3_-36" value="&lt;b&gt;&lt;font style=&quot;font-size: 19px;&quot;&gt;v&lt;/font&gt;&lt;/b&gt;" style="edgeLabel;html=1;align=center;verticalAlign=middle;resizable=0;points=[];labelBackgroundColor=none;" vertex="1" connectable="0" parent="oyOp2UFojPAAg8c2WS3_-35">
          <mxGeometry x="-0.275" y="-1" relative="1" as="geometry">
            <mxPoint x="-4" y="219" as="offset" />
          </mxGeometry>
        </mxCell>
        <mxCell id="oyOp2UFojPAAg8c2WS3_-37" value="2" style="ellipse;whiteSpace=wrap;html=1;aspect=fixed;fillColor=default;fontSize=15;strokeWidth=3;fontStyle=1;" vertex="1" parent="1">
          <mxGeometry x="989" y="189.99999999999997" width="20" height="20" as="geometry" />
        </mxCell>
        <mxCell id="oyOp2UFojPAAg8c2WS3_-38" value="1" style="ellipse;whiteSpace=wrap;html=1;aspect=fixed;fillColor=default;fontSize=15;strokeWidth=3;fontStyle=1;" vertex="1" parent="1">
          <mxGeometry x="1147" y="348.99999999999994" width="20" height="20" as="geometry" />
        </mxCell>
        <mxCell id="oyOp2UFojPAAg8c2WS3_-39" value="3" style="ellipse;whiteSpace=wrap;html=1;aspect=fixed;fillColor=default;fontSize=15;strokeWidth=3;fontStyle=1;" vertex="1" parent="1">
          <mxGeometry x="1147" y="189.99999999999997" width="20" height="20" as="geometry" />
        </mxCell>
      </root>
    </mxGraphModel>
  </diagram>
</mxfile>
